<svg xmlns="http://www.w3.org/2000/svg" width="600" height="750" viewBox="0 0 600 750">
  <rect width="600" height="750" fill="#f2ede4"/>
  <rect x="16" y="16" width="568" height="718" fill="none" stroke="#1d1c1a1a" stroke-width="1"/>
  <g transform="translate(0 20)"><path d="M300 260 C 250 260 240 290 234 318 L 180 338 L 200 368 L 234 358 L 234 450 C 250 468 298 474 300 474 C 302 474 350 468 366 450 L 366 358 L 400 368 L 420 338 L 366 318 C 360 290 350 260 300 260 Z" fill="#a5a49d"/><path d="M200 368 L 400 368" stroke="#00000022" stroke-width="3"/><rect x="262" y="402" width="76" height="30" rx="8" fill="#00000014"/></g>
  <text x="300" y="692" font-family="Georgia, 'Times New Roman', serif" font-size="21" letter-spacing="6" text-anchor="middle" fill="#1d1c1a">UNISEX SOCKS 3 PACK</text>
  <text x="300" y="720" font-family="Helvetica, Arial, sans-serif" font-size="12" letter-spacing="5" text-anchor="middle" fill="#8a857c">ACCESSORIES</text>
</svg>